<?xml version="1.0" encoding="utf-8"?>
<!-- Generator: Adobe Illustrator 20.1.0, SVG Export Plug-In . SVG Version: 6.00 Build 0)  -->
<svg version="1.1" id="Ebene_1" xmlns="http://www.w3.org/2000/svg" xmlns:xlink="http://www.w3.org/1999/xlink" x="0px" y="0px"
	 viewBox="0 0 100 26" style="enable-background:new 0 0 100 26;" xml:space="preserve">
<style type="text/css">
	.st0{fill:#472718;}
	.st1{fill:#A3BD01;}
</style>
<g>
	<g>
		<g>
			<path class="st0" d="M54.4,7.1h3.1v1.7l0,0c0.7-1.2,2-2.1,3.8-2.1c3.8,0,5.3,3.1,5.3,6.4c0,3.4-1.5,6.5-5.3,6.5
				c-1.5,0-2.5-0.4-3.6-1.7l0,0v6.4h-3.3C54.4,24.2,54.4,7.1,54.4,7.1z M57.6,13.3c0,1.7,0.6,4,2.8,4c2.1,0,2.7-2.3,2.7-4
				c0-1.6-0.5-3.9-2.7-3.9C58.5,9.4,57.6,11.6,57.6,13.3z"/>
			<path class="st0" d="M68.4,1.4h3.3v18.1h-3.3V1.4z"/>
			<path class="st0" d="M79.9,6.8c3.7,0,6.5,2.4,6.5,6.5c0,3.6-2.5,6.4-6.5,6.4c-4.2,0-6.4-2.8-6.4-6.4C73.3,9.3,76.1,6.8,79.9,6.8z
				 M79.9,17.3c2.5,0,3.2-2.2,3.2-4.3c0-1.8-1-3.7-3.2-3.7c-2.1,0-3.2,1.8-3.2,3.7C76.7,15,77.3,17.3,79.9,17.3z"/>
			<path class="st0" d="M92.6,16.1L92.6,16.1l3.1-9.1H99l-4.7,12.2c-1,2.7-1.7,5.4-5.1,5.4c-0.7,0-1.5-0.1-2.3-0.4l0.2-2.4
				c0.5,0.1,0.9,0.2,1.6,0.2c1.3,0,2.1-0.9,2.1-2.2L86,6.8h3.6L92.6,16.1z"/>
		</g>
		<path class="st1" d="M10.1,18L10.1,18c-1,1.2-2.3,1.6-3.8,1.6c-3.8,0-5.3-3.1-5.3-6.5s1.5-6.4,5.3-6.4c1.6,0,2.7,0.5,3.7,1.7l0,0
			V1.3h3.3v18.1h-3.2V18z M7.1,17.1c2.2,0,2.8-2.3,2.8-4S9.2,9.1,7,9.1c-2.1,0-2.7,2.3-2.7,3.9C4.4,14.8,4.9,17.1,7.1,17.1z"/>
		<path class="st1" d="M15.2,1.3h3.3v10.5l0,0l3.8-5h3.8l-4.5,5.5l5.3,6.9h-4.2l-4.2-6l0,0v6h-3.3C15.2,19.3,15.2,1.3,15.2,1.3z"/>
		<path class="st1" d="M30.3,11.6c0.4-1.3,1-2.4,2.5-2.4c1.5,0,2.3,1.2,2.7,2.4H39V1.3h-3.3v7.1l0,0c-1-1.2-2.1-1.7-3.7-1.7
			c-3.3,0-4.7,2.2-5.1,4.9L30.3,11.6L30.3,11.6z"/>
	</g>
	<path class="st0" d="M53.9,16.2l-4.4-0.1l0.4,1c-0.7,0.2-1.3,0.4-2.2,0.4c-2.1,0-3.4-1.1-3.4-3.1h6.9h1.7c0-4.4-1.3-7.5-5.9-7.5
		c-3.4,0-5.3,2.2-5.6,5.3H26.8c0,0.4,0,0.6,0,1c0,3.4,1.5,6.5,5.3,6.5c1.5,0,2.8-0.5,3.8-1.6v1.5H39V15h-3.4
		c-0.4,1.3-1.1,2.4-2.6,2.4c-1.6,0-2.5-1.5-2.6-2.8h10.9c0.4,3.4,2.6,5.4,6.4,5.4c1.2,0,2.3-0.1,3.2-0.5l0.4,0.9L53.9,16.2z
		 M47.1,9.1c1.8,0,2.5,1.5,2.6,2.9h-5.4C44.4,10.4,45.2,9.1,47.1,9.1z"/>
</g>
</svg>
