<?xml version="1.0" encoding="UTF-8"?>
<svg id="Ebene_1" data-name="Ebene 1" xmlns="http://www.w3.org/2000/svg" viewBox="0 0 595 142.89052">
  <path d="M54.90923,101.05102h-.29726c-5.83812,7.30074-13.87594,10.22579-23.06711,10.22579C8.46587,111.27681,0,92.2937,0,71.69944c0-20.73695,8.46587-39.13148,31.54486-39.13148,9.7738,0,16.64637,3.35905,22.48449,10.51116h.28537V0h19.57137V109.52297h-18.97686v-8.47195Zm-17.96619-4.96426c12.99606,0,17.22899-13.72753,17.22899-24.38732,0-10.51116-4.95824-23.94737-17.52625-23.94737-12.6988,0-16.20643,13.87021-16.20643,23.94737,0,10.36848,3.65031,24.38732,16.50368,24.38732Z" fill="#b6d644"/>
  <path d="M86.69303,0h19.57137V64.3987h.28537l23.36436-30.08285h23.079l-28.03724,33.59053,31.53297,41.61659h-24.81498l-25.12412-36.50369h-.28537v36.50369h-19.57137V0Z" fill="#b6d644"/>
  <path d="M177.96988,62.54756c1.76306-7.71252,6.09842-14.79542,15.16477-14.79542,9.04614,0,14.10855,6.97423,16.25782,14.79542h20.98252V0h-19.57153V43.079h-.28516c-5.83796-7.15206-12.71058-10.51119-22.48467-10.51119-19.59309,0-28.60151,13.28606-30.89134,29.97975h20.82759Z" fill="#b6d644"/>
  <path d="M366.68317,33.51621c-11.54545,0-18.98876,5.10695-23.36431,12.4077h-.29727v-10.65986h-18.69149v105.87263h19.57137v-39.28013h.28534c6.87253,8.3234,13.73323,10.36851,22.05642,10.36851,23.50709,0,31.97295-18.98306,31.97295-39.5774,0-20.73691-8.46586-39.13144-31.53301-39.13144Zm-5.41003,63.51882c-12.99612,0-17.229-13.72752-17.229-24.38738,0-10.51118,4.97009-23.94734,17.52627-23.94734,12.69874,0,16.20645,13.87019,16.20645,23.94734,0,10.36851-3.65037,24.38738-16.50372,24.38738Z"/>
  <rect x="409.25031" y=".94819" width="19.57137" height="109.523"/>
  <path d="M478.46357,33.51621c-22.19919,0-39.28542,15.03541-39.28542,39.86274,0,21.61088,14.45851,38.8461,39.28542,38.8461,24.96948,0,39.41616-17.23522,39.41616-38.8461,0-24.82733-17.0744-39.86274-39.41616-39.86274Zm0,63.51882c-14.89855,0-18.84609-13.57894-18.84609-25.99255,0-11.24247,6.13542-22.34218,18.84609-22.34218,12.84141,0,18.97683,10.80845,18.97683,22.34218,0,12.56219-3.94754,25.99255-18.97683,25.99255Z"/>
  <path d="M575.14329,35.26404l-18.10888,54.91019h-.29727l-18.10888-54.91019h-21.60455l28.76252,79.00621c0,8.03194-4.81559,13.43025-12.69885,13.43025-4.82742,0-7.59781-.43403-10.08296-1.31391l-1.30789,14.45882c4.53015,1.31381,9.20308,2.0451,13.8759,2.0451,20.43943,0,24.96958-16.35534,31.24767-33.00193l28.17991-74.62454h-19.85671Z"/>
  <path d="M296.92496,95.57586c-4.19771,1.42452-8.67017,2.33906-13.48545,2.33906-12.12806,0-20.59403-6.86672-21.47381-18.98316h51.98416c0-26.28972-7.88325-45.41555-35.76589-45.41555-20.52451,0-31.92512,13.86127-34.39418,31.98094h-66.36599l.00042-.00591h-20.64301c-.18054,2.03795-.29229,4.10557-.29229,6.20815,0,20.59434,8.46586,39.5775,31.54473,39.5775,9.19114,0,17.2291-2.9253,23.06714-10.22604h.29727v8.47188h18.97693v-27.8264h-21.06603c-2.06845,7.66992-6.80166,14.39034-15.87701,14.39034-10.07632,0-14.45301-8.61424-15.89278-17.33265h66.02275c2.04178,21.26702,16.09179,33.47103,38.99769,33.47103,7.78551,0,14.28782-1.12828,20.04763-3.31201l1.41176,3.31378,17.63875-20.75621-27.18796-1.65756,2.45516,5.76282Zm-17.57576-47.74952c10.95091,0,15.32656,8.17471,15.90917,17.66925h-33.29267c.87978-10.07715,6.43259-17.66925,17.3835-17.66925Z"/>
</svg>